HIERARCHY
ROOT Hips
{
	OFFSET 0.000000 0.000000 0.000000
	CHANNELS 6 Xposition Yposition Zposition Zrotation Yrotation Xrotation 
	JOINT LHipJoint
	{
		OFFSET 0.000000 0.000000 0.000000
		CHANNELS 3 Zrotation Yrotation Xrotation
		JOINT LeftUpLeg
		{
			OFFSET 1.363060 -1.794630 0.839290
			CHANNELS 3 Zrotation Yrotation Xrotation
			JOINT LeftLeg
			{
				OFFSET 2.448110 -6.726130 0.000000
				CHANNELS 3 Zrotation Yrotation Xrotation
				JOINT LeftFoot
				{
					OFFSET 2.562200 -7.039590 0.000000
					CHANNELS 3 Zrotation Yrotation Xrotation
					JOINT LeftToeBase
					{
						OFFSET 0.157640 -0.433110 2.322550
						CHANNELS 3 Zrotation Yrotation Xrotation
						End Site
						{
							OFFSET 0.000000 0.000000 0.000000
						}
					}
				}
			}
		}
	}
	JOINT RHipJoint
	{
		OFFSET 0.000000 0.000000 0.000000
		CHANNELS 3 Zrotation Yrotation Xrotation
		JOINT RightUpLeg
		{
			OFFSET -1.305520 -1.794630 0.839290
			CHANNELS 3 Zrotation Yrotation Xrotation
			JOINT RightLeg
			{
				OFFSET -2.542530 -6.985550 0.000000
				CHANNELS 3 Zrotation Yrotation Xrotation
				JOINT RightFoot
				{
					OFFSET -2.568260 -7.056230 0.000000
					CHANNELS 3 Zrotation Yrotation Xrotation
					JOINT RightToeBase
					{
						OFFSET -0.164730 -0.452590 2.363150
						CHANNELS 3 Zrotation Yrotation Xrotation
						End Site
						{
							OFFSET 0.000000 0.000000 0.000000
						}
					}
				}
			}
		}
	}
	JOINT LowerBack
	{
		OFFSET 0.000000 0.000000 0.000000
		CHANNELS 3 Zrotation Yrotation Xrotation
		JOINT Spine
		{
			OFFSET 0.028270 2.035590 -0.193380
			CHANNELS 3 Zrotation Yrotation Xrotation
			JOINT Spine1
			{
				OFFSET 0.056720 2.048850 -0.042750
				CHANNELS 3 Zrotation Yrotation Xrotation
				JOINT Neck
				{
					OFFSET 0.000000 0.000000 0.000000
					CHANNELS 3 Zrotation Yrotation Xrotation
					JOINT Neck1
					{
						OFFSET -0.054170 1.746240 0.172020
						CHANNELS 3 Zrotation Yrotation Xrotation
						JOINT Head
						{
							OFFSET 0.104070 1.761360 -0.123970
							CHANNELS 3 Zrotation Yrotation Xrotation
							End Site
							{
								OFFSET 0.000000 0.000000 0.000000
							}
						}
					}
				}
				JOINT LeftShoulder
				{
					OFFSET 0.000000 0.000000 0.000000
					CHANNELS 3 Zrotation Yrotation Xrotation
					JOINT LeftArm
					{
						OFFSET 3.362410 1.200890 -0.311210
						CHANNELS 3 Zrotation Yrotation Xrotation
						JOINT LeftForeArm
						{
							OFFSET 4.983000 -0.000000 -0.000000
							CHANNELS 3 Zrotation Yrotation Xrotation
							JOINT LeftHand
							{
								OFFSET 3.483560 -0.000000 -0.000000
								CHANNELS 3 Zrotation Yrotation Xrotation
								JOINT LeftFingerBase
								{
									OFFSET 0.000000 0.000000 0.000000
									CHANNELS 3 Zrotation Yrotation Xrotation
									JOINT LeftHandIndex1
									{
										OFFSET 0.715260 -0.000000 -0.000000
										CHANNELS 3 Zrotation Yrotation Xrotation
										End Site
										{
											OFFSET 0.000000 0.000000 0.000000
										}
									}
								}
								JOINT LThumb
								{
									OFFSET 0.000000 0.000000 0.000000
									CHANNELS 3 Zrotation Yrotation Xrotation
									End Site
									{
										OFFSET 0.000000 0.000000 0.000000
									}
								}
							}
						}
					}
				}
				JOINT RightShoulder
				{
					OFFSET 0.000000 0.000000 0.000000
					CHANNELS 3 Zrotation Yrotation Xrotation
					JOINT RightArm
					{
						OFFSET -3.136600 1.374050 -0.404650
						CHANNELS 3 Zrotation Yrotation Xrotation
						JOINT RightForeArm
						{
							OFFSET -5.241900 -0.000000 -0.000000
							CHANNELS 3 Zrotation Yrotation Xrotation
							JOINT RightHand
							{
								OFFSET -3.444170 -0.000000 -0.000000
								CHANNELS 3 Zrotation Yrotation Xrotation
								JOINT RightFingerBase
								{
									OFFSET 0.000000 0.000000 0.000000
									CHANNELS 3 Zrotation Yrotation Xrotation
									JOINT RightHandIndex1
									{
										OFFSET -0.622530 -0.000000 -0.000000
										CHANNELS 3 Zrotation Yrotation Xrotation
										End Site
										{
											OFFSET 0.000000 0.000000 0.000000
										}
									}
								}
								JOINT RThumb
								{
									OFFSET 0.000000 0.000000 0.000000
									CHANNELS 3 Zrotation Yrotation Xrotation
									End Site
									{
										OFFSET 0.000000 0.000000 0.000000
									}
								}
							}
						}
					}
				}
			}
		}
	}
}
MOTION
Frames: 4
Frame Time: 0.008333
0.580291 17.958491 -2.855085 0.159161 -2.252329 10.457976 -1.716208 0.405324 0.834644 -17.886412 -2.434787 -14.830494 0.057222 6.806724 20.488089 0.678798 -4.703719 -5.645548 0.099100 -2.030100 -5.588900 3.610723 0.859176 0.377857 16.643459 3.373788 -15.531584 -2.047998 -9.194943 25.430365 0.681259 -9.180001 -13.143264 -0.027900 -1.079100 2.966300 -8.385573 -0.959451 -7.258226 5.325357 -0.392479 -0.329433 7.473882 -0.047039 1.362641 -1.510364 0.109722 -20.359823 0.278563 0.691692 13.570536 -0.987200 0.080100 9.463600 0.428892 4.970428 -0.883797 -96.298518 -3.022832 3.183187 11.603682 -20.391740 -1.153792 1.239503 1.147785 1.327557 11.856296 34.993881 5.987700 -7.125000 0.000000 0.000000 -26.746100 62.420700 -11.769800 -0.199897 -4.734340 -1.285439 83.461484 -0.324161 24.468466 -15.045697 25.832316 -2.860252 -0.131234 0.256142 -10.806266 -22.172861 12.668295 -4.972400 7.125000 0.000000 0.000000 3.570900 -16.672400 2.401000 
0.577715 17.958491 -2.857165 0.178889 -2.256944 10.432220 -1.728742 0.402305 0.837760 -17.882926 -2.432916 -14.823258 0.062340 6.818019 20.521418 0.680341 -4.706042 -5.667621 0.094400 -1.981100 -5.453400 3.597392 0.853620 0.378066 16.647197 3.390383 -15.523037 -2.052250 -9.203275 25.457468 0.687185 -9.215503 -13.131935 -0.026700 -1.054000 2.897500 -8.253368 -0.937578 -7.236584 5.133930 -0.392946 -0.309736 7.386615 -0.046437 1.347951 -1.410127 0.090419 -20.281029 0.279599 0.637493 13.675030 -1.009300 0.064600 9.482900 0.444288 4.968495 -0.886902 -96.171835 -3.008640 3.119038 11.552134 -20.299435 -1.138333 1.233201 1.153343 1.384307 11.580418 34.966901 5.828500 -7.125000 0.000000 0.000000 -26.989600 62.319300 -11.820900 -0.181155 -4.731856 -1.284771 83.521816 -0.394675 24.591893 -15.074127 25.866501 -2.874266 -0.137861 0.249622 -10.991548 -22.221646 12.406338 -4.881700 7.125000 0.000000 0.000000 3.531300 -16.942300 2.353500 
0.574841 17.957995 -2.857958 0.251294 -2.267275 10.422472 -1.738524 0.400193 0.844394 -17.943111 -2.424405 -14.811336 0.063252 6.816728 20.522907 0.680352 -4.717892 -5.661985 0.088100 -1.914400 -5.269100 3.588218 0.847495 0.384384 16.582779 3.372109 -15.552907 -2.056725 -9.211928 25.485898 0.683994 -9.186967 -13.105774 -0.025200 -1.023900 2.814600 -8.244560 -0.936756 -7.284368 5.004944 -0.407357 -0.205541 7.377355 -0.052027 1.385524 -1.299896 0.109524 -20.254570 0.223270 0.631297 13.671226 -1.042700 0.062500 9.480200 0.451962 4.961652 -0.895647 -96.124457 -3.075111 3.120957 11.541625 -20.271986 -1.123793 1.231015 1.170763 1.358227 11.427737 35.314097 5.791100 -7.125000 0.000000 0.000000 -27.485200 62.569100 -12.217700 -0.167761 -4.734656 -1.291498 83.542833 -0.399079 24.669940 -15.109038 25.913458 -2.890075 -0.142969 0.244387 -11.148033 -22.273052 12.225539 -4.823100 7.125000 0.000000 0.000000 3.492100 -17.126500 2.313200 
0.571175 17.957500 -2.857463 0.290990 -2.292688 10.401454 -1.738729 0.400242 0.850846 -17.978551 -2.364226 -14.822983 0.067051 6.819409 20.536469 0.683790 -4.774110 -5.630848 0.080500 -1.829700 -5.035200 3.587676 0.844286 0.392273 16.548036 3.338584 -15.565836 -2.060718 -9.220771 25.512625 0.676225 -9.136703 -13.107216 -0.024400 -1.008800 2.772900 -8.299285 -0.941162 -7.294890 5.005120 -0.416998 -0.093230 7.411076 -0.054421 1.404143 -1.268226 0.135138 -20.285230 0.153172 0.658571 13.609206 -1.064600 0.067500 9.467800 0.450446 4.958597 -0.900004 -96.169156 -3.087629 3.110572 11.573727 -20.333316 -1.137647 1.231683 1.164918 1.381973 11.479139 35.228000 5.808700 -7.125000 0.000000 0.000000 -27.348400 62.512000 -12.115100 -0.168402 -4.741417 -1.300789 83.515905 -0.336911 24.685349 -15.088867 25.884700 -2.881480 -0.143917 0.245751 -11.208740 -22.290228 12.267958 -4.843200 7.125000 0.000000 0.000000 3.482000 -17.081300 2.309900 
